{
    "asset" : {
        "generator" : "Khronos glTF Blender I/O v0.9.2",
        "version" : "2.0"
    },
    "scene" : 0,
    "scenes" : [
        {
            "name" : "Scene",
            "nodes" : [
                0,
                1
            ]
        }
    ],
    "nodes" : [
        {
            "mesh" : 0,
            "name" : "Cube"
        },
        {
            "mesh" : 1,
            "name" : "Walls"
        }
    ],
    "meshes" : [
        {
            "name" : "Cube.003",
            "primitives" : [
                {
                    "attributes" : {
                        "POSITION" : 0,
                        "NORMAL" : 1
                    },
                    "indices" : 2
                }
            ]
        },
        {
            "name" : "Cube.000",
            "primitives" : [
                {
                    "attributes" : {
                        "POSITION" : 3,
                        "NORMAL" : 4
                    },
                    "indices" : 5
                }
            ]
        }
    ],
    "accessors" : [
        {
            "bufferView" : 0,
            "componentType" : 5126,
            "count" : 384,
            "max" : [
                1.0704096555709839,
                1.0704095363616943,
                1.0704096555709839
            ],
            "min" : [
                -1.0704096555709839,
                -1.0704095363616943,
                -1.0704096555709839
            ],
            "type" : "VEC3"
        },
        {
            "bufferView" : 1,
            "componentType" : 5126,
            "count" : 384,
            "type" : "VEC3"
        },
        {
            "bufferView" : 2,
            "componentType" : 5123,
            "count" : 576,
            "type" : "SCALAR"
        },
        {
            "bufferView" : 3,
            "componentType" : 5126,
            "count" : 48,
            "max" : [
                1.0049570798873901,
                1.0049570798873901,
                1.0049570798873901
            ],
            "min" : [
                -1.0049570798873901,
                -1.0049570798873901,
                -1.0049570798873901
            ],
            "type" : "VEC3"
        },
        {
            "bufferView" : 4,
            "componentType" : 5126,
            "count" : 48,
            "type" : "VEC3"
        },
        {
            "bufferView" : 5,
            "componentType" : 5123,
            "count" : 108,
            "type" : "SCALAR"
        }
    ],
    "bufferViews" : [
        {
            "buffer" : 0,
            "byteLength" : 4608,
            "byteOffset" : 0
        },
        {
            "buffer" : 0,
            "byteLength" : 4608,
            "byteOffset" : 4608
        },
        {
            "buffer" : 0,
            "byteLength" : 1152,
            "byteOffset" : 9216
        },
        {
            "buffer" : 0,
            "byteLength" : 576,
            "byteOffset" : 10368
        },
        {
            "buffer" : 0,
            "byteLength" : 576,
            "byteOffset" : 10944
        },
        {
            "buffer" : 0,
            "byteLength" : 216,
            "byteOffset" : 11520
        }
    ],
    "buffers" : [
        {
            "byteLength" : 11736,
            "uri" : "data:application/octet-stream;base64,"
        }
    ]
}
