{
    "asset" : {
        "generator" : "Khronos glTF Blender I/O v0.9.2",
        "version" : "2.0"
    },
    "scene" : 0,
    "scenes" : [
        {
            "name" : "Scene",
            "nodes" : [
                0
            ]
        }
    ],
    "nodes" : [
        {
            "mesh" : 0,
            "name" : "Cube"
        }
    ],
    "meshes" : [
        {
            "name" : "Cube",
            "primitives" : [
                {
                    "attributes" : {
                        "POSITION" : 0,
                        "NORMAL" : 1
                    },
                    "indices" : 2
                }
            ]
        }
    ],
    "accessors" : [
        {
            "bufferView" : 0,
            "componentType" : 5126,
            "count" : 768,
            "max" : [
                1.0658221244812012,
                1.0658221244812012,
                1.0658221244812012
            ],
            "min" : [
                -1.0658221244812012,
                -1.0658221244812012,
                -1.0658221244812012
            ],
            "type" : "VEC3"
        },
        {
            "bufferView" : 1,
            "componentType" : 5126,
            "count" : 768,
            "type" : "VEC3"
        },
        {
            "bufferView" : 2,
            "componentType" : 5123,
            "count" : 1152,
            "type" : "SCALAR"
        }
    ],
    "bufferViews" : [
        {
            "buffer" : 0,
            "byteLength" : 9216,
            "byteOffset" : 0
        },
        {
            "buffer" : 0,
            "byteLength" : 9216,
            "byteOffset" : 9216
        },
        {
            "buffer" : 0,
            "byteLength" : 2304,
            "byteOffset" : 18432
        }
    ],
    "buffers" : [
        {
            "byteLength" : 20736,
            "uri" : "data:application/octet-stream;base64,"
        }
    ]
}
